# xmcd
#
# Track frame offsets:
#	150
#	13595
#	27727
#	42662
#	57685
#	71530
#	84755
#	99282
#	112355
#	126155
#	140540
#	153560
#	168485
#	181935
#	196802
#	209779
#	223350
#	236715
#	250010
#	262940
#
# Disc length: 3691 seconds
#
# Revision: 2
# Processed by: cddbd v1.5.2PL0 Copyright (c) Steve Scherf et al.
# Submitted via: EZCDAudioConverter 2.8.1.1
#
DISCID=320e6914
DTITLE=Various Artist - Great Blues Guitarists: String Dazzlers
DYEAR=1991
DGENRE=Blues - Pre War Blues
TTITLE0=Blind Willie Dunn - Hot Fingers
TTITLE1=Lonnie Johnson - Eddie Lang - A Handful Of Riffs
TTITLE2=Texas Alexander - Work Ox Blues
TTITLE3=Sylvester Weaver - I'm Busy And You Can't Come In
TTITLE4=Blind Willie McTell - Georgia Rag
TTITLE5=Blind Willie McTell - Warm It Up To Me
TTITLE6=Sylvester Weaver - Untitled
TTITLE7=Sylvester Weaver - Walter Beasley - Untitled
TTITLE8=Blind Willie Johnson - When The War Was On
TTITLE9=Blind Willie Johnson - Its Nobodys Fault But Mine
TTITLE10=Big Bill Broonzy - How You Want It Done?
TTITLE11=Big Bill Broonzy - Getting Older Every Day
TTITLE12=Casey Bill Weldon - Guitar Swing
TTITLE13=Lonnie Johnson - Eddie Lang - Bull Frog Moan
TTITLE14=Blind Lemon Jefferson - Black Snake Moan
TTITLE15=Josh White - Little Brother Blues
TTITLE16=Josh White - Prodigal Son
TTITLE17=Tampa Red - Denver Blues
TTITLE18=Lonnie Johnson - Away Down In The Alley Blues
TTITLE19=Lonnie Johnson - I Love You A Mary Lou
EXTD=
EXTT0=
EXTT1=
EXTT2=
EXTT3=
EXTT4=
EXTT5=
EXTT6=
EXTT7=
EXTT8=
EXTT9=
EXTT10=
EXTT11=
EXTT12=
EXTT13=
EXTT14=
EXTT15=
EXTT16=
EXTT17=
EXTT18=
EXTT19=
PLAYORDER=
